<mxfile host="app.diagrams.net" modified="2024-07-04T08:47:44.297Z" agent="Mozilla/5.0 (Windows NT 10.0; Win64; x64) AppleWebKit/537.36 (KHTML, like Gecko) Chrome/126.0.0.0 Safari/537.36" etag="uwNdrtLJgtRXxelVdZfv" version="24.6.4" type="device">
  <diagram name="Страница — 1" id="Ry38BCuveJmgrmQgNOBJ">
    <mxGraphModel dx="1728" dy="953" grid="1" gridSize="10" guides="1" tooltips="1" connect="1" arrows="1" fold="1" page="1" pageScale="1" pageWidth="1169" pageHeight="827" math="0" shadow="0">
      <root>
        <mxCell id="0" />
        <mxCell id="1" parent="0" />
        <mxCell id="CA9aRV39laklr7qtcU_Z-8" style="edgeStyle=orthogonalEdgeStyle;rounded=0;orthogonalLoop=1;jettySize=auto;html=1;exitX=0.25;exitY=1;exitDx=0;exitDy=0;entryX=0.25;entryY=0;entryDx=0;entryDy=0;" edge="1" parent="1" source="CA9aRV39laklr7qtcU_Z-1" target="CA9aRV39laklr7qtcU_Z-2">
          <mxGeometry relative="1" as="geometry" />
        </mxCell>
        <mxCell id="CA9aRV39laklr7qtcU_Z-1" value="&lt;font style=&quot;font-size: 15px;&quot;&gt;Core back-end&lt;/font&gt;" style="rounded=0;whiteSpace=wrap;html=1;" vertex="1" parent="1">
          <mxGeometry x="280" y="200" width="120" height="80" as="geometry" />
        </mxCell>
        <mxCell id="CA9aRV39laklr7qtcU_Z-9" style="edgeStyle=orthogonalEdgeStyle;rounded=0;orthogonalLoop=1;jettySize=auto;html=1;exitX=0.75;exitY=0;exitDx=0;exitDy=0;entryX=0.75;entryY=1;entryDx=0;entryDy=0;" edge="1" parent="1" source="CA9aRV39laklr7qtcU_Z-2" target="CA9aRV39laklr7qtcU_Z-1">
          <mxGeometry relative="1" as="geometry" />
        </mxCell>
        <mxCell id="CA9aRV39laklr7qtcU_Z-10" style="edgeStyle=orthogonalEdgeStyle;rounded=0;orthogonalLoop=1;jettySize=auto;html=1;exitX=1;exitY=0.25;exitDx=0;exitDy=0;entryX=0;entryY=0.25;entryDx=0;entryDy=0;" edge="1" parent="1" source="CA9aRV39laklr7qtcU_Z-2" target="CA9aRV39laklr7qtcU_Z-3">
          <mxGeometry relative="1" as="geometry" />
        </mxCell>
        <mxCell id="CA9aRV39laklr7qtcU_Z-13" style="edgeStyle=orthogonalEdgeStyle;rounded=0;orthogonalLoop=1;jettySize=auto;html=1;exitX=0.25;exitY=1;exitDx=0;exitDy=0;entryX=0.25;entryY=0;entryDx=0;entryDy=0;" edge="1" parent="1" source="CA9aRV39laklr7qtcU_Z-2" target="CA9aRV39laklr7qtcU_Z-4">
          <mxGeometry relative="1" as="geometry" />
        </mxCell>
        <mxCell id="CA9aRV39laklr7qtcU_Z-2" value="&lt;font style=&quot;font-size: 15px;&quot;&gt;Message broker&lt;/font&gt;" style="rounded=0;whiteSpace=wrap;html=1;" vertex="1" parent="1">
          <mxGeometry x="280" y="310" width="120" height="80" as="geometry" />
        </mxCell>
        <mxCell id="CA9aRV39laklr7qtcU_Z-11" style="edgeStyle=orthogonalEdgeStyle;rounded=0;orthogonalLoop=1;jettySize=auto;html=1;exitX=0;exitY=0.75;exitDx=0;exitDy=0;entryX=1;entryY=0.75;entryDx=0;entryDy=0;" edge="1" parent="1" source="CA9aRV39laklr7qtcU_Z-3" target="CA9aRV39laklr7qtcU_Z-2">
          <mxGeometry relative="1" as="geometry" />
        </mxCell>
        <mxCell id="CA9aRV39laklr7qtcU_Z-3" value="&lt;font style=&quot;font-size: 15px;&quot;&gt;Data processor&lt;/font&gt;" style="rounded=0;whiteSpace=wrap;html=1;" vertex="1" parent="1">
          <mxGeometry x="440" y="310" width="120" height="80" as="geometry" />
        </mxCell>
        <mxCell id="CA9aRV39laklr7qtcU_Z-4" value="&lt;font style=&quot;font-size: 15px;&quot;&gt;Artifact&amp;nbsp;&lt;/font&gt;&lt;div&gt;&lt;font style=&quot;font-size: 15px;&quot;&gt;processor&lt;/font&gt;&lt;/div&gt;" style="rounded=0;whiteSpace=wrap;html=1;" vertex="1" parent="1">
          <mxGeometry x="280" y="420" width="120" height="80" as="geometry" />
        </mxCell>
        <mxCell id="CA9aRV39laklr7qtcU_Z-12" style="edgeStyle=orthogonalEdgeStyle;rounded=0;orthogonalLoop=1;jettySize=auto;html=1;exitX=0.75;exitY=0;exitDx=0;exitDy=0;entryX=0.75;entryY=1;entryDx=0;entryDy=0;" edge="1" parent="1" source="CA9aRV39laklr7qtcU_Z-4" target="CA9aRV39laklr7qtcU_Z-2">
          <mxGeometry relative="1" as="geometry" />
        </mxCell>
      </root>
    </mxGraphModel>
  </diagram>
</mxfile>
